<svg width="61" height="58" viewBox="0 0 61 58" fill="none" xmlns="http://www.w3.org/2000/svg">
<path d="M31 56C44.8071 56 56 44.8071 56 31C56 17.1929 44.8071 6 31 6C17.1929 6 6 17.1929 6 31C6 44.8071 17.1929 56 31 56Z" fill="#3056D3"/>
<path fill-rule="evenodd" clip-rule="evenodd" d="M21.1028 32.1819C18.418 28.6466 18.8656 25.4644 22.4453 22.6361C27.8151 18.3934 32.5136 21.045 35.8698 19.454C38.1075 18.3933 39.0023 16.6257 38.5547 14.1507C41.2395 17.686 40.792 20.8683 37.2123 23.6966C31.8424 27.9393 27.1439 25.2876 23.7878 26.8786C21.5501 27.9393 20.6553 29.7069 21.1028 32.1819ZM22.4453 43.8493C19.7605 40.314 20.208 37.1316 23.7878 34.3032C29.1576 30.0606 33.8561 32.7122 37.2123 31.1213C39.4499 30.0606 40.3447 28.2929 39.8972 25.818C42.582 29.3533 42.1344 32.5356 38.5547 35.3639C33.1849 39.6065 28.4864 36.955 25.1302 38.546C22.8925 39.6066 21.9977 41.3743 22.4453 43.8493V43.8493Z" fill="white"/>
</svg>
